<svg xmlns="http://www.w3.org/2000/svg" xmlns:xlink="http://www.w3.org/1999/xlink" viewBox="0 0 1668.36 468.32"><defs><style>.cls-1{fill:url(#Dégradé_sans_nom_14);}.cls-2{fill:#fff;}.cls-3{fill:#b8aeb1;}</style><radialGradient id="Dégradé_sans_nom_14" cx="205.87" cy="234.16" fy="487.020602095934" r="252.86" gradientUnits="userSpaceOnUse"><stop offset="0" stop-color="#f79533"/><stop offset="0.44" stop-color="#dc2a65"/><stop offset="0.56" stop-color="#bf3070"/><stop offset="0.83" stop-color="#75408c"/><stop offset="1" stop-color="#444a9f"/></radialGradient></defs><title>metworkFichier 1</title><g id="Calque_2" data-name="Calque 2"><g id="Layer_1" data-name="Layer 1"><path class="cls-1" d="M206,468.32a23.13,23.13,0,0,1-11.57-3.1l-3.29-1.9a23.22,23.22,0,0,1-11.57-20.05v-192a3.15,3.15,0,0,0-1.6-2.74l-29.6-16.79a3,3,0,0,0-1.54-.43,3.33,3.33,0,0,0-2.29,1,3,3,0,0,0-.88,2.2l.26,162a22.91,22.91,0,0,1-6.73,16.36,23.4,23.4,0,0,1-16.44,6.85,23.06,23.06,0,0,1-11.56-3.13l-6.54-3.77a23.22,23.22,0,0,1-11.57-20l-.16-192.28a3.18,3.18,0,0,0-1.56-2.72L57.43,179a3,3,0,0,0-1.57-.45,3.19,3.19,0,0,0-3.18,3.17V343.31A23.12,23.12,0,0,1,18,363.36l-6.38-3.68A23.21,23.21,0,0,1,0,339.63v-211a23.23,23.23,0,0,1,11.57-20l3.19-1.84a23.16,23.16,0,0,1,23.15,0l166.38,96.06a3.14,3.14,0,0,0,1.58.42,3.08,3.08,0,0,0,1.57-.42l36.68-21.15a3.15,3.15,0,0,0,0-5.46L104.06,95.34a23.16,23.16,0,0,1,0-40.1l6.38-3.69a23.18,23.18,0,0,1,23.16,0L300,147.61a3.18,3.18,0,0,0,3.16,0L328,133.22a3.15,3.15,0,0,0,0-5.46L187.91,46.88a23.15,23.15,0,0,1,0-40.1l6.38-3.68a23.16,23.16,0,0,1,23.15,0L400.16,108.59a23.21,23.21,0,0,1,11.57,20v3.69a23.23,23.23,0,0,1-11.57,20L233.78,248.43a3.15,3.15,0,0,0-1.57,2.73v45.9a3,3,0,0,0,.93,2.25,3.31,3.31,0,0,0,2.24.92,3,3,0,0,0,1.55-.44L377,218.92A23.12,23.12,0,0,1,411.73,239v7.38a23.23,23.23,0,0,1-11.57,20L233.78,362.45a3.16,3.16,0,0,0-1.57,2.73v78.24a23.2,23.2,0,0,1-11.81,20.19l-3.1,1.74a23.25,23.25,0,0,1-11.35,3Z"/><path class="cls-2" d="M693.23,92.74q5.52,5.81,5.53,15V261.09q0,8.91-5.13,14t-13.5,5.13a17.91,17.91,0,0,1-13.23-5.13q-5.13-5.13-5.13-14V165.78l-38.34,72.09q-3.78,7-8.23,10.26a19,19,0,0,1-21.2,0q-4.59-3.25-8.37-10.26l-38.34-70.74v94q0,8.64-5.13,13.9t-13.5,5.27a17.91,17.91,0,0,1-13.23-5.13q-5.13-5.13-5.13-14V107.73q0-9.18,5.54-15t14.44-5.8q13,0,19.71,13.77l54.81,104,54.54-103.95q7.29-13.77,19.44-13.77Q687.69,86.94,693.23,92.74Z"/><path class="cls-2" d="M849.92,243.54a17.45,17.45,0,0,1,3.38,11.07,14.74,14.74,0,0,1-2.7,8.5,21.83,21.83,0,0,1-7.56,6.61,96.91,96.91,0,0,1-21.33,8,91,91,0,0,1-22.41,3.1q-21.62,0-37.67-8.36a58.55,58.55,0,0,1-24.7-23.9Q728.28,233,728.29,212q0-20.25,8.37-35.91a61.24,61.24,0,0,1,23.22-24.44q14.83-8.78,33.75-8.77,18.07,0,31.72,8a54.45,54.45,0,0,1,21.2,22.68q7.55,14.72,7.56,34.43,0,5.94-2.84,9a10.25,10.25,0,0,1-8,3.11h-75.6q1.88,15.93,9.72,23.08t22.41,7.16a47.93,47.93,0,0,0,14-1.9,134.76,134.76,0,0,0,13.77-5.12q3.76-1.62,7.29-2.84a19.23,19.23,0,0,1,6.21-1.22A10.64,10.64,0,0,1,849.92,243.54Zm-73.84-65.21q-7,7.42-8.37,21.47h52.11q-.81-14.31-7.16-21.6t-17.95-7.29Q783.09,170.91,776.08,178.33Z"/><path class="cls-2" d="M962.47,254.61q3.78,3.51,3.78,10.26,0,7.83-6.21,11.88T942.22,280l-7.56-.54q-47.25-3.78-47.25-49.41V176.58h-10.8q-8.91,0-13.5-3.92t-4.59-11.2q0-7.56,4.59-11.48t13.5-3.91h10.8V125q0-8.91,5.53-14t15-5.13q9.45,0,14.85,5.13t5.4,14v21.06h18.9q18.36,0,18.36,15.39,0,7.29-4.59,11.2t-13.77,3.92h-18.9V233q0,8.1,3.78,12.28T943,250l7.56.53Q958.69,251.1,962.47,254.61Z"/><path class="cls-2" d="M1228.92,89.77a20.58,20.58,0,0,1,24.57,1.49q5.54,4.86,5.53,13.23a28.38,28.38,0,0,1-1.62,8.91L1201.24,267a19.5,19.5,0,0,1-8.5,10.12,25.5,25.5,0,0,1-13.37,3.64,24.79,24.79,0,0,1-13.23-3.64,19.68,19.68,0,0,1-8.37-10.12l-40.23-113.67L1076.23,267a19.68,19.68,0,0,1-8.37,10.12,25.61,25.61,0,0,1-26.32,0A19.52,19.52,0,0,1,1033,267L976.87,113.4a26,26,0,0,1-1.62-8.64,16.58,16.58,0,0,1,5.94-13.37A22.21,22.21,0,0,1,1007,89.77a19.36,19.36,0,0,1,7.69,9.86l41.58,119.61,43.2-119.07a20.1,20.1,0,0,1,7.7-10,19.85,19.85,0,0,1,22.54,0,20.31,20.31,0,0,1,7.56,10.26l41.31,121,42.93-121.77A19.92,19.92,0,0,1,1228.92,89.77Z"/><path class="cls-2" d="M1294.76,272.29a59.52,59.52,0,0,1-24.57-24q-8.65-15.52-8.64-36.58t8.64-36.59a58.66,58.66,0,0,1,24.57-23.89q15.93-8.37,37-8.37t37,8.37a58.89,58.89,0,0,1,24.57,23.89q8.63,15.53,8.64,36.59t-8.64,36.58a59.76,59.76,0,0,1-24.57,24q-15.95,8.5-37,8.5T1294.76,272.29Zm66.69-60.61q0-19.17-7.7-28.62t-22-9.45q-29.71,0-29.7,38.07t29.7,38.07Q1361.45,249.75,1361.45,211.68Z"/><path class="cls-2" d="M1519.63,147q4.71,4.19,4.72,12.56,0,8.91-4.32,13.23t-15.39,5.4l-8.1.81q-14.85,1.62-21.46,9.72t-6.62,20.79v51.57q0,9.45-5.8,14.3a21.78,21.78,0,0,1-14.45,4.87q-8.91,0-14.71-4.87t-5.81-14.3V162q0-8.91,5.94-13.77a21.87,21.87,0,0,1,14.31-4.86,19.76,19.76,0,0,1,13.5,4.72q5.4,4.72,5.4,13.1v7.29a37.48,37.48,0,0,1,14.72-17.82,45.6,45.6,0,0,1,21.46-7l3.78-.27Q1514.9,142.83,1519.63,147Z"/><path class="cls-2" d="M1668.08,260.54a19.23,19.23,0,0,1-5.53,13.5q-5.54,6-12.83,5.95-7,0-13-5.67l-59.13-54.81v41.31q0,9.45-5.8,14.31a21.75,21.75,0,0,1-14.45,4.86q-8.91,0-14.71-4.86t-5.81-14.31V106.11q0-9.45,5.81-14.31t14.71-4.86a21.75,21.75,0,0,1,14.45,4.86q5.81,4.86,5.8,14.31v96.66l54-53.19q5.94-5.94,13.23-5.94a18.34,18.34,0,0,1,13.23,5.53,17.71,17.71,0,0,1,5.67,13.1q0,7-6.21,13.23l-35.91,34.29L1661.87,247Q1668.08,253,1668.08,260.54Z"/><path class="cls-3" d="M520.87,330.08v23.85h30.18v10H520.87v41.49H509.15V319.54h53v10.54Z"/><path class="cls-3" d="M681.39,405.38l-22.91-36.86q-3.91,0-12.42-.58v37.44H634.34V319.54q.64,0,9.11-.44t12.34-.44q30.93,0,30.94,24.61a23.29,23.29,0,0,1-5,14.56q-5,6.46-11.84,8.05l24.9,39.5Zm-35.33-75.3V358a58.2,58.2,0,0,0,8.2.59q10.56,0,15.36-3.4t4.8-12.13q0-7.2-5.16-10.37T653,329.5C651.8,329.5,649.5,329.69,646.06,330.08Z"/><path class="cls-3" d="M814,405.38l-5.92-18.11H776.12l-6.33,18.11H756.66l34.87-87h3.1l32.35,87Zm-21.45-64.51-13.3,37.79h25.49Z"/><path class="cls-3" d="M962.25,405.38l-10.2-55.14L933.3,406.55h-2.93l-19.28-56.31-10,55.14H890l16-85.84h5.34l20.45,62.63,18.86-62.63H956l17.4,85.84Z"/><path class="cls-3" d="M1056.09,330.08v23.85h28.36v10h-28.36v30.94H1095v10.55h-50.63V319.54h51.27v10.54Z"/><path class="cls-3" d="M1236.24,406.55h-3.69l-20.45-59.18L1193,406.55h-3.69l-27.07-87h12.19l17.22,59.94,18.87-59.94h4.1l18.63,59.82,17.52-59.82H1263Z"/><path class="cls-3" d="M1330,361.72q0-18.63,9.34-31.17T1364.6,318q17.87,0,27.39,11.55t9.52,32.16q0,21.16-9.55,33.14t-27.36,12q-16.23,0-25.4-12.65T1330,361.72Zm12.3,0q0,14.77,5.83,24.67t16.44,9.9q12,0,18.31-9.08t6.3-25.49q0-33.15-24.61-33.16-10.9,0-16.58,8.91T1342.33,361.72Z"/><path class="cls-3" d="M1524.24,405.38l-22.91-36.86q-3.91,0-12.42-.58v37.44h-11.72V319.54q.64,0,9.11-.44t12.34-.44q30.93,0,30.94,24.61a23.29,23.29,0,0,1-5,14.56,20.71,20.71,0,0,1-11.84,8.05l24.9,39.5Zm-35.33-75.3V358a58.23,58.23,0,0,0,8.21.59q10.55,0,15.35-3.4t4.8-12.13q0-7.2-5.15-10.37t-16.29-3.16C1494.65,329.5,1492.35,329.69,1488.91,330.08Z"/><path class="cls-3" d="M1655.41,405.38l-24.2-39.5-11.42,16.24v23.26h-11.72V319.54h11.72v46.7l31.87-46.7h13.07l-25.67,37.2,29.3,48.64Z"/></g></g></svg>